<svg width="32" height="33" viewBox="0 0 32 33" fill="none" xmlns="http://www.w3.org/2000/svg">
<path d="M16 32.5C24.8366 32.5 32 25.3366 32 16.5C32 7.66344 24.8366 0.5 16 0.5C7.16344 0.5 0 7.66344 0 16.5C0 25.3366 7.16344 32.5 16 32.5Z" fill="url(#paint0_linear_1_4)"/>
<path d="M13.2006 16.3C13.2006 14.8641 14.3644 13.6998 15.8003 13.6998C17.2363 13.6998 18.4006 14.8641 18.4006 16.3C18.4006 17.7359 17.2363 18.9002 15.8003 18.9002C14.3644 18.9002 13.2006 17.7359 13.2006 16.3ZM11.7949 16.3C11.7949 18.5121 13.5881 20.3052 15.8003 20.3052C18.0125 20.3052 19.8057 18.5121 19.8057 16.3C19.8057 14.0879 18.0125 12.2948 15.8003 12.2948C13.5881 12.2948 11.7949 14.0879 11.7949 16.3ZM19.0282 12.136C19.0282 12.6526 19.4472 13.0723 19.9645 13.0723C20.4811 13.0723 20.9008 12.6526 20.9008 12.136C20.9008 11.6194 20.4818 11.2004 19.9645 11.2004C19.4472 11.2004 19.0282 11.6194 19.0282 12.136ZM12.6487 22.649C11.8882 22.6143 11.4749 22.4877 11.2001 22.3806C10.836 22.2388 10.5764 22.07 10.3029 21.7972C10.0301 21.5244 9.86061 21.2648 9.71947 20.9006C9.61236 20.6259 9.48571 20.2126 9.45106 19.4521C9.41326 18.6299 9.40569 18.3829 9.40569 16.3C9.40569 14.2171 9.41389 13.9707 9.45106 13.1479C9.48571 12.3874 9.61299 11.9747 9.71947 11.6994C9.86124 11.3352 10.0301 11.0756 10.3029 10.8022C10.5757 10.5294 10.8353 10.3599 11.2001 10.2188C11.4749 10.1117 11.8882 9.98502 12.6487 9.95037C13.4709 9.91257 13.7179 9.90501 15.8003 9.90501C17.8833 9.90501 18.1297 9.9132 18.9526 9.95037C19.7131 9.98502 20.1258 10.1123 20.4011 10.2188C20.7653 10.3599 21.0249 10.5294 21.2983 10.8022C21.5712 11.075 21.74 11.3352 21.8818 11.6994C21.9889 11.9741 22.1155 12.3874 22.1502 13.1479C22.188 13.9707 22.1956 14.2171 22.1956 16.3C22.1956 18.3823 22.188 18.6293 22.1502 19.4521C22.1155 20.2126 21.9883 20.6259 21.8818 20.9006C21.74 21.2648 21.5712 21.5244 21.2983 21.7972C21.0255 22.07 20.7653 22.2388 20.4011 22.3806C20.1264 22.4877 19.7131 22.6143 18.9526 22.649C18.1303 22.6868 17.8833 22.6944 15.8003 22.6944C13.7179 22.6944 13.4709 22.6868 12.6487 22.649ZM12.5844 8.54725C11.754 8.58506 11.1869 8.71674 10.691 8.90953C10.1782 9.10863 9.74341 9.37577 9.30929 9.80924C8.8758 10.2427 8.60865 10.6774 8.40955 11.1909C8.21675 11.6868 8.08506 12.2538 8.04726 13.0842C8.00882 13.9159 8 14.1818 8 16.3C8 18.4182 8.00882 18.6841 8.04726 19.5158C8.08506 20.3462 8.21675 20.9132 8.40955 21.4091C8.60865 21.9219 8.87517 22.3573 9.30929 22.7908C9.74278 23.2242 10.1775 23.4907 10.691 23.6905C11.1875 23.8833 11.754 24.0149 12.5844 24.0527C13.4167 24.0905 13.682 24.1 15.8003 24.1C17.9193 24.1 18.1845 24.0912 19.0162 24.0527C19.8467 24.0149 20.4137 23.8833 20.9096 23.6905C21.4225 23.4907 21.8572 23.2242 22.2913 22.7908C22.7248 22.3573 22.9913 21.9219 23.1911 21.4091C23.3839 20.9132 23.5162 20.3462 23.5534 19.5158C23.5912 18.6835 23.6 18.4182 23.6 16.3C23.6 14.1818 23.5912 13.9159 23.5534 13.0842C23.5156 12.2538 23.3839 11.6868 23.1911 11.1909C22.9913 10.6781 22.7248 10.2433 22.2913 9.80924C21.8578 9.37577 21.4225 9.10863 20.9102 8.90953C20.4137 8.71674 19.8467 8.58443 19.0168 8.54725C18.1851 8.50945 17.9193 8.5 15.8009 8.5C13.682 8.5 13.4167 8.50882 12.5844 8.54725Z" fill="black"/>
<defs>
<linearGradient id="paint0_linear_1_4" x1="26.72" y1="4.34" x2="4.64" y2="27.86" gradientUnits="userSpaceOnUse">
<stop stop-color="#FFDF00"/>
<stop offset="1" stop-color="#E8AD1C"/>
</linearGradient>
</defs>
</svg>
