<svg width="32" height="33" viewBox="0 0 32 33" fill="none" xmlns="http://www.w3.org/2000/svg">
<path d="M16 32.5C24.8366 32.5 32 25.3366 32 16.5C32 7.66344 24.8366 0.5 16 0.5C7.16344 0.5 0 7.66344 0 16.5C0 25.3366 7.16344 32.5 16 32.5Z" fill="url(#paint0_linear_1_4)"/>
<path d="M8 10.3121C8 9.78686 8.17568 9.35352 8.52703 9.01212C8.87837 8.6707 9.33514 8.5 9.8973 8.5C10.4494 8.5 10.8961 8.66807 11.2375 9.00424C11.5888 9.35091 11.7645 9.80262 11.7645 10.3594C11.7645 10.8636 11.5938 11.2838 11.2525 11.62C10.9012 11.9667 10.4394 12.14 9.86718 12.14H9.85212C9.3 12.14 8.85329 11.9667 8.51197 11.62C8.17065 11.2733 8 10.8374 8 10.3121ZM8.19575 24.1V13.5739H11.5386V24.1H8.19575ZM13.3907 24.1H16.7336V18.2224C16.7336 17.8547 16.7738 17.5711 16.8541 17.3715C16.9946 17.0143 17.2079 16.7123 17.494 16.4655C17.7801 16.2186 18.139 16.0952 18.5707 16.0952C19.695 16.0952 20.2571 16.8883 20.2571 18.4745V24.1H23.6V18.0648C23.6 16.5101 23.2487 15.3309 22.5459 14.5273C21.8432 13.7236 20.9147 13.3218 19.7602 13.3218C18.4653 13.3218 17.4564 13.9048 16.7336 15.0709V15.1024H16.7185L16.7336 15.0709V13.5739H13.3907C13.4108 13.9101 13.4208 14.9553 13.4208 16.7097C13.4208 18.464 13.4108 20.9275 13.3907 24.1Z" fill="black"/>
<defs>
<linearGradient id="paint0_linear_1_4" x1="26.72" y1="4.34" x2="4.64" y2="27.86" gradientUnits="userSpaceOnUse">
<stop stop-color="#FFDF00"/>
<stop offset="1" stop-color="#E8AD1C"/>
</linearGradient>
</defs>
</svg>
