<svg width="32" height="33" viewBox="0 0 32 33" fill="none" xmlns="http://www.w3.org/2000/svg">
<path d="M16 32.5C24.8366 32.5 32 25.3366 32 16.5C32 7.66344 24.8366 0.5 16 0.5C7.16344 0.5 0 7.66344 0 16.5C0 25.3366 7.16344 32.5 16 32.5Z" fill="url(#paint0_linear_1_4)"/>
<path d="M25.8003 11.9985C25.1146 12.3026 24.377 12.5082 23.6035 12.6C24.3933 12.1269 24.9994 11.3782 25.2855 10.4846C24.5465 10.923 23.7276 11.241 22.8568 11.4124C22.1592 10.6694 21.1652 10.2051 20.0646 10.2051C17.9529 10.2051 16.2401 11.9178 16.2401 14.0295C16.2401 14.3293 16.2741 14.6211 16.3397 14.9011C13.1612 14.7417 10.343 13.2192 8.45662 10.9047C8.12749 11.4694 7.93867 12.1269 7.93867 12.8276C7.93867 14.1542 8.61435 15.3253 9.63998 16.0109C9.01336 15.9912 8.42325 15.8193 7.90787 15.532C7.90758 15.5483 7.90758 15.5646 7.90758 15.5805C7.90758 17.4336 9.22642 18.9792 10.9756 19.3303C10.6551 19.4181 10.3165 19.4646 9.96826 19.4646C9.72127 19.4646 9.48197 19.4409 9.24867 19.3964C9.73524 20.9155 11.1473 22.0213 12.8213 22.0523C11.5121 23.0783 9.8633 23.6895 8.07101 23.6895C7.76298 23.6895 7.4578 23.6715 7.15918 23.6359C8.85079 24.7214 10.8616 25.3543 13.0212 25.3543C20.0558 25.3543 23.9027 19.5268 23.9027 14.4725C23.9027 14.3068 23.899 14.1416 23.8916 13.9779C24.6394 13.4388 25.2877 12.7655 25.8003 11.9985Z" fill="black"/>
<defs>
<linearGradient id="paint0_linear_1_4" x1="26.72" y1="4.34" x2="4.64" y2="27.86" gradientUnits="userSpaceOnUse">
<stop stop-color="#FFDF00"/>
<stop offset="1" stop-color="#E8AD1C"/>
</linearGradient>
</defs>
</svg>
